<svg width="25" height="24" viewBox="0 0 25 24" fill="none" xmlns="http://www.w3.org/2000/svg">
<path d="M12.5225 2.8125C12.7392 2.00692 13.2288 1.29338 13.9142 0.784213C14.5996 0.275046 15.442 -0.000833469 16.3087 1.89152e-06H16.4063C16.6135 1.89152e-06 16.8122 0.0790195 16.9587 0.219672C17.1053 0.360324 17.1876 0.55109 17.1876 0.750002C17.1876 0.948914 17.1053 1.13968 16.9587 1.28033C16.8122 1.42098 16.6135 1.5 16.4063 1.5H16.3087C15.789 1.49996 15.2841 1.6657 14.8733 1.97116C14.4625 2.27662 14.169 2.70449 14.0391 3.1875C13.9873 3.3802 13.8579 3.54525 13.6793 3.64634C13.5008 3.74744 13.2877 3.77629 13.087 3.72656C12.8863 3.67684 12.7143 3.5526 12.609 3.38118C12.5037 3.20976 12.4737 3.0052 12.5255 2.8125H12.5225ZM21.8067 15.8991C21.7481 15.7705 21.6534 15.6602 21.5333 15.5803C19.876 14.4872 19.5313 12.6225 19.5313 11.25C19.5313 9.59344 20.8467 8.15063 21.6309 7.43719C21.7081 7.3671 21.7695 7.28265 21.8115 7.189C21.8535 7.09535 21.8751 6.99446 21.8751 6.8925C21.8751 6.79054 21.8535 6.68966 21.8115 6.59601C21.7695 6.50235 21.7081 6.4179 21.6309 6.34781C20.3926 5.22563 18.3419 4.5 16.4063 4.5C15.0159 4.50119 13.6569 4.89683 12.5001 5.63719C11.1506 4.76847 9.52793 4.37832 7.91122 4.53385C6.2945 4.68938 4.78477 5.38086 3.64167 6.48938C2.9583 7.15912 2.42212 7.95387 2.06496 8.82643C1.7078 9.69899 1.53695 10.6316 1.56257 11.5688C1.6009 13.1506 1.9673 14.7093 2.64036 16.1537C3.31341 17.5981 4.27961 18.8992 5.48249 19.9809C6.2069 20.638 7.16655 21.0028 8.16315 21H16.7257C17.2584 21.001 17.7858 20.8969 18.2749 20.6942C18.7641 20.4915 19.2047 20.1945 19.5694 19.8216C20.245 19.1236 20.8294 18.3491 21.3096 17.5153C21.9952 16.3125 21.9073 16.125 21.8067 15.8991Z" fill="#1A212B"/>
</svg>
