<svg width="125" height="125" viewBox="0 0 125 125" fill="none" xmlns="http://www.w3.org/2000/svg">
<g clip-path="url(#clip0_1_3521)">
<path d="M115.984 29.4489H95.5511V9.01582C95.5511 4.04636 91.5047 0 86.5353 0H38.4578C33.4883 0 29.442 4.04636 29.442 9.01582V29.4489H9.01582C4.04636 29.4489 0 33.4883 0 38.4647V86.5422C0 91.5117 4.04636 95.558 9.01582 95.558H29.4489V115.991C29.4489 120.961 33.4883 125.007 38.4647 125.007H86.5422C91.5117 125.007 95.558 120.961 95.558 115.991V95.558H115.991C120.961 95.558 125.007 91.5117 125.007 86.5422V38.4647C125 33.4883 120.954 29.4489 115.984 29.4489ZM115.38 85.9384H95.5511V48.6743H85.9384V115.38H39.0616V95.5511H76.3187V85.9384H9.61271V39.0616H29.442V76.3187H39.0547V9.61271H85.9245V29.442H48.6813V39.0547H115.387V85.9384H115.38Z" fill="#1F3C88"/>
</g>
<defs>
<clipPath id="clip0_1_3521">
<rect width="125" height="125" fill="white"/>
</clipPath>
</defs>
</svg>
