<svg width="20" height="20" viewBox="0 0 20 20" fill="none" xmlns="http://www.w3.org/2000/svg">
<path d="M5.94582 5.98132C6.98488 4.9335 8.42385 4.2833 10.0058 4.28483C11.4643 4.28625 12.7949 4.83383 13.8042 5.7343C13.9488 5.86331 14.1809 5.85483 14.3179 5.71781L16.1696 3.86619C16.3203 3.71541 16.3162 3.46903 16.1595 3.32441C14.5091 1.80107 12.293 0.881833 9.86171 0.918023C7.40367 0.954604 5.18022 1.97564 3.56501 3.6005C3.38491 3.78166 3.59557 5.97487 3.59557 5.97487C3.59557 5.97487 4.93198 7.00375 5.94582 5.98132Z" fill="url(#paint0_linear_1_3501)"/>
<path d="M5.94556 5.98135C6.98462 4.93353 8.42359 4.28332 10.0055 4.28486C11.464 4.28628 12.7947 4.83386 13.8039 5.73433C13.9486 5.86334 14.1806 5.85486 14.3177 5.71783L15.3802 4.65527C15.2877 4.58374 15.1964 4.50865 15.1074 4.42979C13.7221 3.20295 11.9198 2.42227 9.91904 2.44329C7.84406 2.46508 5.98033 3.31141 4.63273 4.66844C4.48537 4.81684 4.42749 5.97725 4.42749 5.97725C4.42749 5.97725 4.60039 5.96162 5.94556 5.98135Z" fill="url(#paint1_linear_1_3501)"/>
<path d="M4.2852 9.9483C4.27095 11.5562 4.92065 13.0123 5.97642 14.0592L5.16607 15.8079L3.59524 16.4403C1.94392 14.7979 0.920564 12.525 0.917002 10.0131C0.91344 7.51869 1.92611 5.24865 3.56497 3.60052L5.94578 5.98134C4.93205 7.00363 4.29873 8.40455 4.2852 9.9483Z" fill="url(#paint2_linear_1_3501)"/>
<path d="M4.28528 9.94837C4.27103 11.5562 4.92073 13.0124 5.9765 14.0592L4.6746 15.3615C3.32319 14.0193 2.47651 12.1696 2.4441 10.1222C2.41026 7.99249 3.24982 6.06155 4.63328 4.66882L5.94587 5.98141C4.93213 7.00369 4.29882 8.40461 4.28528 9.94837Z" fill="url(#paint3_linear_1_3501)"/>
<path d="M14.0283 14.0639C12.9868 15.0958 11.549 15.7251 9.96304 15.7151C8.40846 15.7052 7.00148 15.0745 5.97685 14.0588L3.59546 16.4402C5.23151 18.0673 7.48374 19.0754 9.97152 19.083C12.4644 19.0907 14.7316 18.0655 16.3809 16.4166L15.7003 14.9613L14.0283 14.0639Z" fill="url(#paint4_linear_1_3501)"/>
<path d="M14.0282 14.0638C12.9867 15.0957 11.549 15.7252 9.96305 15.7152C8.4085 15.7054 7.00152 15.0746 5.97689 14.0588L4.67456 15.3612C6.04068 16.7183 7.9224 17.5571 10.0001 17.5571C12.0778 17.5571 13.9594 16.7183 15.3256 15.3612L14.0282 14.0638Z" fill="url(#paint5_linear_1_3501)"/>
<path d="M19.083 9.06717C19.083 8.88811 18.9379 8.74292 18.7588 8.74292H10.3041C10.1437 8.74292 10.0137 8.87297 10.0137 9.03336V11.8288C10.0137 11.9892 10.1437 12.1193 10.3041 12.1193H14.4332C14.8585 12.1193 15.1226 12.5834 14.9038 12.9481C14.6596 13.3552 14.366 13.7282 14.0316 14.06C14.0304 14.0613 14.0295 14.0625 14.0283 14.0638L16.3813 16.4169C16.4924 16.3058 16.6051 16.1946 16.7188 16.0831C18.189 14.4527 19.083 12.2895 19.083 9.92966V9.06717Z" fill="url(#paint6_linear_1_3501)"/>
<path d="M17.1752 12.3787C17.5075 11.3742 16.7631 10.3384 15.7052 10.3384H10.0137V11.8288C10.0137 11.9892 10.1437 12.1193 10.3041 12.1193H14.4332C14.8585 12.1193 15.1226 12.5834 14.9038 12.9481C14.6604 13.3539 14.3678 13.7257 14.0348 14.0567C14.0325 14.0591 14.0307 14.0614 14.0283 14.0638L15.3255 15.3611C16.0151 14.6769 16.5729 13.8601 16.9587 12.9525C17.0381 12.7648 17.1104 12.5735 17.1752 12.3787Z" fill="url(#paint7_linear_1_3501)"/>
<defs>
<linearGradient id="paint0_linear_1_3501" x1="3.4922" y1="3.67552" x2="16.2798" y2="3.67552" gradientUnits="userSpaceOnUse">
<stop stop-color="#FF637B"/>
<stop offset="1" stop-color="#F90217"/>
</linearGradient>
<linearGradient id="paint1_linear_1_3501" x1="13.1761" y1="8.5886" x2="5.14198" y2="0.554411" gradientUnits="userSpaceOnUse">
<stop stop-color="#FF637B"/>
<stop offset="1" stop-color="#F90217"/>
</linearGradient>
<linearGradient id="paint2_linear_1_3501" x1="1.133" y1="7.57336" x2="6.0723" y2="12.5127" gradientUnits="userSpaceOnUse">
<stop stop-color="#FFD833"/>
<stop offset="1" stop-color="#F2B631"/>
</linearGradient>
<linearGradient id="paint3_linear_1_3501" x1="7.19476" y1="12.556" x2="1.91718" y2="7.27843" gradientUnits="userSpaceOnUse">
<stop stop-color="#FFD833"/>
<stop offset="1" stop-color="#F2B631"/>
</linearGradient>
<linearGradient id="paint4_linear_1_3501" x1="9.21763" y1="15.2705" x2="11.9736" y2="18.0264" gradientUnits="userSpaceOnUse">
<stop stop-color="#28A265"/>
<stop offset="1" stop-color="#28895E"/>
</linearGradient>
<linearGradient id="paint5_linear_1_3501" x1="13.5207" y1="18.8818" x2="5.54892" y2="10.91" gradientUnits="userSpaceOnUse">
<stop stop-color="#28A265"/>
<stop offset="1" stop-color="#28895E"/>
</linearGradient>
<linearGradient id="paint6_linear_1_3501" x1="13.882" y1="9.77461" x2="18.1092" y2="14.0018" gradientUnits="userSpaceOnUse">
<stop stop-color="#7FAEF4"/>
<stop offset="1" stop-color="#4C8DF1"/>
</linearGradient>
<linearGradient id="paint7_linear_1_3501" x1="17.4221" y1="15.3856" x2="11.9344" y2="9.89783" gradientUnits="userSpaceOnUse">
<stop stop-color="#7FAEF4"/>
<stop offset="1" stop-color="#4C8DF1"/>
</linearGradient>
</defs>
</svg>
