<svg width="24" height="24" viewBox="0 0 24 24" fill="none" xmlns="http://www.w3.org/2000/svg">
<g clip-path="url(#clip0_40_341)">
<path d="M11.9996 22.8533C12.4195 22.8437 12.8225 22.6858 13.1373 22.4076C13.4521 22.1294 13.6583 21.7489 13.7196 21.3333H10.2129C10.2759 21.7602 10.4918 22.1497 10.8204 22.4293C11.1491 22.7089 11.5681 22.8596 11.9996 22.8533Z" fill="#666666"/>
<path d="M21.8999 18.7534L21.6732 18.5534C21.0302 17.9805 20.4673 17.3234 19.9999 16.6001C19.4894 15.6018 19.1834 14.5115 19.0999 13.3934V10.1001C19.0972 9.70002 19.0615 9.30089 18.9932 8.90672C17.8639 8.67461 16.8496 8.0594 16.1219 7.16524C15.3942 6.27108 14.9978 5.15292 14.9999 4.00005V3.58005C14.3038 3.23751 13.556 3.01226 12.7865 2.91339V2.07339C12.7865 1.83735 12.6928 1.61097 12.5259 1.44406C12.359 1.27716 12.1326 1.18339 11.8965 1.18339C11.6605 1.18339 11.4341 1.27716 11.2672 1.44406C11.1003 1.61097 11.0065 1.83735 11.0065 2.07339V2.94672C9.28368 3.18976 7.70692 4.04788 6.56735 5.36268C5.42778 6.67747 4.80236 8.36015 4.80654 10.1001V13.3934C4.72304 14.5115 4.41705 15.6018 3.90654 16.6001C3.44712 17.3216 2.89333 17.9785 2.25987 18.5534L2.0332 18.7534V20.6334H21.8999V18.7534Z" fill="#666666"/>
<path d="M19.9993 7.33338C21.8403 7.33338 23.3327 5.84099 23.3327 4.00004C23.3327 2.15909 21.8403 0.66671 19.9993 0.66671C18.1584 0.66671 16.666 2.15909 16.666 4.00004C16.666 5.84099 18.1584 7.33338 19.9993 7.33338Z" fill="#299D91"/>
</g>
<defs>
<clipPath id="clip0_40_341">
<rect width="24" height="24" fill="white"/>
</clipPath>
</defs>
</svg>
