<svg width="125" height="126" viewBox="0 0 125 126" fill="none" xmlns="http://www.w3.org/2000/svg">
<path d="M115.984 29.9489H95.5511V9.51582C95.5511 4.54636 91.5047 0.5 86.5353 0.5H38.4578C33.4883 0.5 29.442 4.54636 29.442 9.51582V29.9489H9.01582C4.04636 29.9489 0 33.9883 0 38.9647V87.0422C0 92.0117 4.04636 96.058 9.01582 96.058H29.4489V116.491C29.4489 121.461 33.4883 125.507 38.4647 125.507H86.5422C91.5117 125.507 95.558 121.461 95.558 116.491V96.058H115.991C120.961 96.058 125.007 92.0117 125.007 87.0422V38.9647C125 33.9883 120.954 29.9489 115.984 29.9489ZM115.38 86.4384H95.5511V49.1743H85.9384V115.88H39.0616V96.0511H76.3187V86.4384H9.61271V39.5616H29.442V76.8187H39.0547V10.1127H85.9245V29.942H48.6813V39.5547H115.387V86.4384H115.38Z" fill="white"/>
</svg>
